<svg xmlns="http://www.w3.org/2000/svg" width="12" height="12" viewBox="0 0 12 12">
  <defs>
    <style>
      .cls-1 {
        fill: #60558f;
      }
    </style>
  </defs>
  <path id="share_2" data-name="share 2" class="cls-1" d="M67.2,471.9a2.293,2.293,0,0,0-1.661.71l-3.469-1.734a2.33,2.33,0,0,0,.03-.375,2.292,2.292,0,0,0-.031-.375l3.47-1.734A2.3,2.3,0,1,0,64.9,466.8a2.408,2.408,0,0,0,.03.375l-3.469,1.734a2.3,2.3,0,1,0,0,3.18l3.469,1.734a2.444,2.444,0,0,0-.03.375,2.3,2.3,0,1,0,2.3-2.3Z" transform="translate(-57.5 -464.5)"/>
</svg>
